<svg viewBox="0 0 100 115" fill="none" xmlns="http://www.w3.org/2000/svg">
  <!-- Shield Outer -->
  <path
    d="M50 4 C76 16 93 24 93 28 C93 72 68 98 50 110 C32 98 7 72 7 28 C7 24 24 16 50 4 Z"
    fill="#006a61"
    stroke="#004e47"
    stroke-width="2"
  />
  <path
    d="M50 10 C73 21 87 28 87 31 C87 69 65 92 50 103 C35 92 13 69 13 31 C13 28 27 21 50 10 Z"
    stroke="white"
    stroke-width="6"
    stroke-linecap="round"
    stroke-linejoin="round"
  />
  
  <!-- Center Leader -->
  <circle cx="50" cy="40" r="6.5" fill="white" />
  <path d="M42 53 C42 48 46 48 50 48 C54 48 58 48 58 53 L58 74 C58 76 56 78 54 78 L46 78 C44 78 42 76 42 74 Z" fill="white" />

  <!-- Left Person -->
  <circle cx="32" cy="46" r="5" fill="white" />
  <path d="M25 57 C25 53 28 53 32 53 C36 53 39 53 39 57 L39 71 L31 71 C29 71 25 69 25 65 Z" fill="white" />

  <!-- Right Person -->
  <circle cx="68" cy="46" r="5" fill="white" />
  <path d="M61 57 C61 53 64 53 68 53 C72 53 75 53 75 57 L75 65 C75 69 71 71 69 71 L61 71 Z" fill="white" />
</svg>
